<svg id="visual" viewBox="0 0 1920 100" width="1920" height="100" xmlns="http://www.w3.org/2000/svg" xmlns:xlink="http://www.w3.org/1999/xlink" version="1.1"><path d="M0 37L13.8 41.3C27.7 45.7 55.3 54.3 83.2 56C111 57.7 139 52.3 166.8 51.3C194.7 50.3 222.3 53.7 250.2 52.7C278 51.7 306 46.3 333.8 43.3C361.7 40.3 389.3 39.7 417.2 41.5C445 43.3 473 47.7 500.8 47.8C528.7 48 556.3 44 584.2 45.5C612 47 640 54 667.8 57.3C695.7 60.7 723.3 60.3 751.2 60C779 59.7 807 59.3 834.8 55.2C862.7 51 890.3 43 918.2 39.8C946 36.7 974 38.3 1001.8 42.8C1029.7 47.3 1057.3 54.7 1085.2 58C1113 61.3 1141 60.7 1168.8 58C1196.7 55.3 1224.3 50.7 1252.2 48.5C1280 46.3 1308 46.7 1335.8 47.5C1363.7 48.3 1391.3 49.7 1419.2 48.2C1447 46.7 1475 42.3 1502.8 42C1530.7 41.7 1558.3 45.3 1586.2 48.2C1614 51 1642 53 1669.8 54.7C1697.7 56.3 1725.3 57.7 1753.2 58.7C1781 59.7 1809 60.3 1836.8 57.5C1864.7 54.7 1892.3 48.3 1906.2 45.2L1920 42L1920 101L1906.2 101C1892.3 101 1864.7 101 1836.8 101C1809 101 1781 101 1753.2 101C1725.3 101 1697.7 101 1669.8 101C1642 101 1614 101 1586.2 101C1558.3 101 1530.7 101 1502.8 101C1475 101 1447 101 1419.2 101C1391.3 101 1363.7 101 1335.8 101C1308 101 1280 101 1252.2 101C1224.3 101 1196.7 101 1168.8 101C1141 101 1113 101 1085.2 101C1057.3 101 1029.7 101 1001.8 101C974 101 946 101 918.2 101C890.3 101 862.7 101 834.8 101C807 101 779 101 751.2 101C723.3 101 695.7 101 667.8 101C640 101 612 101 584.2 101C556.3 101 528.7 101 500.8 101C473 101 445 101 417.2 101C389.3 101 361.7 101 333.8 101C306 101 278 101 250.2 101C222.3 101 194.7 101 166.8 101C139 101 111 101 83.2 101C55.3 101 27.7 101 13.8 101L0 101Z" fill="#444243" stroke-linecap="round" stroke-linejoin="miter"></path></svg>