<svg id="visual" viewBox="0 0 450 50" width="450" height="50" xmlns="http://www.w3.org/2000/svg" xmlns:xlink="http://www.w3.org/1999/xlink" version="1.1"><path d="M0 27L3.3 28.7C6.7 30.3 13.3 33.7 19.8 34.3C26.3 35 32.7 33 39.2 32.5C45.7 32 52.3 33 58.8 32.7C65.3 32.3 71.7 30.7 78.2 29.7C84.7 28.7 91.3 28.3 97.8 28.8C104.3 29.3 110.7 30.7 117.2 30.7C123.7 30.7 130.3 29.3 137 30C143.7 30.7 150.3 33.3 156.8 34.5C163.3 35.7 169.7 35.3 176.2 35.2C182.7 35 189.3 35 195.8 33.7C202.3 32.3 208.7 29.7 215.2 28.5C221.7 27.3 228.3 27.7 234.8 29.2C241.3 30.7 247.7 33.3 254.2 34.5C260.7 35.7 267.3 35.3 273.8 34.5C280.3 33.7 286.7 32.3 293.2 31.7C299.7 31 306.3 31 313 31.2C319.7 31.3 326.3 31.7 332.8 31.2C339.3 30.7 345.7 29.3 352.2 29.3C358.7 29.3 365.3 30.7 371.8 31.7C378.3 32.7 384.7 33.3 391.2 33.8C397.7 34.3 404.3 34.7 410.8 35C417.3 35.3 423.7 35.7 430.2 34.7C436.7 33.7 443.3 31.3 446.7 30.2L450 29L450 51L446.7 51C443.3 51 436.7 51 430.2 51C423.7 51 417.3 51 410.8 51C404.3 51 397.7 51 391.2 51C384.7 51 378.3 51 371.8 51C365.3 51 358.7 51 352.2 51C345.7 51 339.3 51 332.8 51C326.3 51 319.7 51 313 51C306.3 51 299.7 51 293.2 51C286.7 51 280.3 51 273.8 51C267.3 51 260.7 51 254.2 51C247.7 51 241.3 51 234.8 51C228.3 51 221.7 51 215.2 51C208.7 51 202.3 51 195.8 51C189.3 51 182.7 51 176.2 51C169.7 51 163.3 51 156.8 51C150.3 51 143.7 51 137 51C130.3 51 123.7 51 117.2 51C110.7 51 104.3 51 97.8 51C91.3 51 84.7 51 78.2 51C71.7 51 65.3 51 58.8 51C52.3 51 45.7 51 39.2 51C32.7 51 26.3 51 19.8 51C13.3 51 6.7 51 3.3 51L0 51Z" fill="#f9da5b" stroke-linecap="round" stroke-linejoin="miter"></path></svg>